<svg width="159" height="40" viewBox="0 0 159 40" fill="none" xmlns="http://www.w3.org/2000/svg">
<path d="M56.497 28H53.07V11.578H62.477V14.43H56.497V18.662H62.063V21.514H56.497V28ZM72.432 15.212C72.6007 15.212 72.8 15.2197 73.03 15.235C73.26 15.2503 73.444 15.2733 73.582 15.304L73.329 18.524C73.2217 18.4933 73.0607 18.4703 72.846 18.455C72.6467 18.4243 72.4704 18.409 72.317 18.409C71.8724 18.409 71.443 18.4703 71.029 18.593C70.615 18.7003 70.2394 18.8767 69.902 19.122C69.58 19.3673 69.3194 19.697 69.12 20.111C68.936 20.5097 68.844 21.008 68.844 21.606V28H65.417V15.442H68.016L68.522 17.558H68.683C68.9284 17.1287 69.235 16.7377 69.603 16.385C69.971 16.0323 70.3927 15.7487 70.868 15.534C71.3587 15.3193 71.88 15.212 72.432 15.212ZM80.5642 15.189C82.2508 15.189 83.5388 15.557 84.4282 16.293C85.3328 17.0137 85.7852 18.1253 85.7852 19.628V28H83.3932L82.7262 26.298H82.6342C82.2815 26.7427 81.9135 27.1107 81.5302 27.402C81.1622 27.6933 80.7328 27.9003 80.2422 28.023C79.7668 28.161 79.1765 28.23 78.4712 28.23C77.7352 28.23 77.0682 28.092 76.4702 27.816C75.8875 27.5247 75.4275 27.0877 75.0902 26.505C74.7528 25.907 74.5842 25.1557 74.5842 24.251C74.5842 22.917 75.0518 21.9357 75.9872 21.307C76.9225 20.663 78.3255 20.3103 80.1962 20.249L82.3812 20.18V19.628C82.3812 18.9687 82.2048 18.4857 81.8522 18.179C81.5148 17.8723 81.0395 17.719 80.4262 17.719C79.8128 17.719 79.2148 17.811 78.6322 17.995C78.0495 18.1637 77.4668 18.3783 76.8842 18.639L75.7572 16.316C76.4318 15.9633 77.1755 15.6873 77.9882 15.488C78.8162 15.2887 79.6748 15.189 80.5642 15.189ZM81.0472 22.227C79.9432 22.2577 79.1765 22.457 78.7472 22.825C78.3178 23.193 78.1032 23.676 78.1032 24.274C78.1032 24.7953 78.2565 25.171 78.5632 25.401C78.8698 25.6157 79.2685 25.723 79.7592 25.723C80.4952 25.723 81.1162 25.5083 81.6222 25.079C82.1282 24.6343 82.3812 24.0133 82.3812 23.216V22.181L81.0472 22.227ZM96.423 15.212C97.7724 15.212 98.8534 15.58 99.666 16.316C100.479 17.0367 100.885 18.202 100.885 19.812V28H97.458V20.663C97.458 19.7583 97.297 19.0837 96.975 18.639C96.653 18.179 96.1394 17.949 95.434 17.949C94.3914 17.949 93.6784 18.3093 93.295 19.03C92.9117 19.7353 92.72 20.755 92.72 22.089V28H89.293V15.442H91.915L92.375 17.052H92.559C92.835 16.6227 93.1724 16.2777 93.571 16.017C93.9697 15.741 94.4144 15.5417 94.905 15.419C95.3957 15.281 95.9017 15.212 96.423 15.212ZM109.515 28.23C108.273 28.23 107.215 28.0077 106.341 27.563C105.467 27.103 104.8 26.3977 104.34 25.447C103.88 24.4963 103.65 23.2773 103.65 21.79C103.65 20.2567 103.911 19.007 104.432 18.041C104.954 17.075 105.674 16.362 106.594 15.902C107.53 15.442 108.603 15.212 109.814 15.212C110.673 15.212 111.417 15.2963 112.045 15.465C112.689 15.6337 113.249 15.833 113.724 16.063L112.712 18.708C112.176 18.4933 111.67 18.317 111.194 18.179C110.734 18.041 110.274 17.972 109.814 17.972C109.216 17.972 108.718 18.1177 108.319 18.409C107.921 18.685 107.622 19.1067 107.422 19.674C107.238 20.226 107.146 20.9237 107.146 21.767C107.146 22.595 107.246 23.285 107.445 23.837C107.66 24.3737 107.967 24.78 108.365 25.056C108.764 25.3167 109.247 25.447 109.814 25.447C110.535 25.447 111.171 25.355 111.723 25.171C112.275 24.9717 112.812 24.7033 113.333 24.366V27.287C112.812 27.6243 112.26 27.862 111.677 28C111.11 28.1533 110.389 28.23 109.515 28.23ZM121.399 15.212C122.564 15.212 123.561 15.4343 124.389 15.879C125.232 16.3237 125.884 16.9677 126.344 17.811C126.804 18.6543 127.034 19.6893 127.034 20.916V22.572H118.938C118.968 23.538 119.252 24.297 119.789 24.849C120.341 25.401 121.1 25.677 122.066 25.677C122.878 25.677 123.614 25.6003 124.274 25.447C124.933 25.2783 125.615 25.0253 126.321 24.688V27.333C125.707 27.6397 125.056 27.862 124.366 28C123.691 28.1533 122.871 28.23 121.905 28.23C120.647 28.23 119.536 28 118.57 27.54C117.604 27.0647 116.845 26.3517 116.293 25.401C115.741 24.4503 115.465 23.2543 115.465 21.813C115.465 20.341 115.71 19.122 116.201 18.156C116.707 17.1747 117.404 16.4387 118.294 15.948C119.183 15.4573 120.218 15.212 121.399 15.212ZM121.422 17.65C120.762 17.65 120.21 17.8647 119.766 18.294C119.336 18.7233 119.083 19.3903 119.007 20.295H123.814C123.814 19.789 123.722 19.3367 123.538 18.938C123.369 18.5393 123.108 18.225 122.756 17.995C122.403 17.765 121.958 17.65 121.422 17.65ZM134.965 15.189C136.651 15.189 137.939 15.557 138.829 16.293C139.733 17.0137 140.186 18.1253 140.186 19.628V28H137.794L137.127 26.298H137.035C136.682 26.7427 136.314 27.1107 135.931 27.402C135.563 27.6933 135.133 27.9003 134.643 28.023C134.167 28.161 133.577 28.23 132.872 28.23C132.136 28.23 131.469 28.092 130.871 27.816C130.288 27.5247 129.828 27.0877 129.491 26.505C129.153 25.907 128.985 25.1557 128.985 24.251C128.985 22.917 129.452 21.9357 130.388 21.307C131.323 20.663 132.726 20.3103 134.597 20.249L136.782 20.18V19.628C136.782 18.9687 136.605 18.4857 136.253 18.179C135.915 17.8723 135.44 17.719 134.827 17.719C134.213 17.719 133.615 17.811 133.033 17.995C132.45 18.1637 131.867 18.3783 131.285 18.639L130.158 16.316C130.832 15.9633 131.576 15.6873 132.389 15.488C133.217 15.2887 134.075 15.189 134.965 15.189ZM135.448 22.227C134.344 22.2577 133.577 22.457 133.148 22.825C132.718 23.193 132.504 23.676 132.504 24.274C132.504 24.7953 132.657 25.171 132.964 25.401C133.27 25.6157 133.669 25.723 134.16 25.723C134.896 25.723 135.517 25.5083 136.023 25.079C136.529 24.6343 136.782 24.0133 136.782 23.216V22.181L135.448 22.227ZM147.12 28H143.693V10.52H147.12V28ZM154.128 28H150.701V10.52H154.128V28Z" fill="#E5E5E5"/>
<g clip-path="url(#clip0_3518_1022)">
<mask id="mask0_3518_1022" style="mask-type:luminance" maskUnits="userSpaceOnUse" x="3" y="2" width="37" height="37">
<path d="M3 2H40V39H3V2Z" fill="white"/>
</mask>
<g mask="url(#mask0_3518_1022)">
<path d="M39.0263 29.2632C39.0263 30.2961 38.616 31.2867 37.8856 32.0172C37.1552 32.7476 36.1645 33.1579 35.1316 33.1579H27.3421V7.8421H35.1316C36.1645 7.8421 37.1552 8.25244 37.8856 8.98285C38.616 9.71325 39.0263 10.7039 39.0263 11.7368V29.2632Z" fill="#DD2E44"/>
<path d="M7.86842 7.8421C6.83547 7.8421 5.84483 8.25244 5.11443 8.98285C4.38402 9.71325 3.97369 10.7039 3.97369 11.7368V29.2632C3.97369 30.2961 4.38402 31.2867 5.11443 32.0172C5.84483 32.7476 6.83547 33.1579 7.86842 33.1579H15.6579V7.8421H7.86842Z" fill="#226699"/>
<path d="M27.3421 33.1579H15.6579V7.8421H27.3421V33.1579Z" fill="#EEEEEE"/>
</g>
</g>
<defs>
<clipPath id="clip0_3518_1022">
<rect width="37" height="37" fill="white" transform="translate(3 2)"/>
</clipPath>
</defs>
</svg>
