<svg width="159" height="40" viewBox="0 0 159 40" fill="none" xmlns="http://www.w3.org/2000/svg">
<path d="M53.959 26L53.075 23.11H48.655L47.771 26H45L49.284 13.811H52.429L56.73 26H53.959ZM51.579 18.129C51.5223 17.9363 51.4487 17.6927 51.358 17.398C51.2673 17.1033 51.1767 16.803 51.086 16.497C50.9953 16.191 50.9217 15.9247 50.865 15.698C50.8083 15.9247 50.729 16.208 50.627 16.548C50.5363 16.8767 50.4457 17.194 50.355 17.5C50.2757 17.7947 50.2133 18.0043 50.168 18.129L49.301 20.951H52.463L51.579 18.129ZM60.5963 26H58.0633V13.08H60.5963V26ZM65.776 26H63.243V13.08H65.776V26ZM73.7267 20.985H68.3377L67.5557 19.88L67.0967 19.353V19.081H72.4857L73.2677 20.186L73.7267 20.713V20.985ZM79.7897 26H74.2647V24.538L75.7437 23.858V16.004L74.2647 15.324V13.862H79.7897V15.324L78.3107 16.004V23.858L79.7897 24.538V26ZM86.9241 16.548C87.9215 16.548 88.7205 16.82 89.3211 17.364C89.9218 17.8967 90.2221 18.758 90.2221 19.948V26H87.6891V20.577C87.6891 19.9083 87.5701 19.4097 87.3321 19.081C87.0941 18.741 86.7145 18.571 86.1931 18.571C85.4225 18.571 84.8955 18.8373 84.6121 19.37C84.3288 19.8913 84.1871 20.645 84.1871 21.631V26H81.6541V16.718H83.5921L83.9321 17.908H84.0681C84.2721 17.5907 84.5215 17.3357 84.8161 17.143C85.1108 16.939 85.4395 16.7917 85.8021 16.701C86.1648 16.599 86.5388 16.548 86.9241 16.548ZM98.131 20.985H92.742L91.96 19.88L91.501 19.353V19.081H96.89L97.672 20.186L98.131 20.713V20.985ZM102.188 26H99.655V13.862H106.608V15.97H102.188V19.098H106.302V21.206H102.188V26ZM113.966 16.548C114.091 16.548 114.238 16.5537 114.408 16.565C114.578 16.5763 114.714 16.5933 114.816 16.616L114.629 18.996C114.55 18.9733 114.431 18.9563 114.272 18.945C114.125 18.9223 113.994 18.911 113.881 18.911C113.552 18.911 113.235 18.9563 112.929 19.047C112.623 19.1263 112.345 19.2567 112.096 19.438C111.858 19.6193 111.665 19.863 111.518 20.169C111.382 20.4637 111.314 20.832 111.314 21.274V26H108.781V16.718H110.702L111.076 18.282H111.195C111.376 17.9647 111.603 17.6757 111.875 17.415C112.147 17.1543 112.459 16.9447 112.81 16.786C113.173 16.6273 113.558 16.548 113.966 16.548ZM119.977 16.531C121.223 16.531 122.175 16.803 122.833 17.347C123.501 17.8797 123.836 18.7013 123.836 19.812V26H122.068L121.575 24.742H121.507C121.246 25.0707 120.974 25.3427 120.691 25.558C120.419 25.7733 120.101 25.9263 119.739 26.017C119.387 26.119 118.951 26.17 118.43 26.17C117.886 26.17 117.393 26.068 116.951 25.864C116.52 25.6487 116.18 25.3257 115.931 24.895C115.681 24.453 115.557 23.8977 115.557 23.229C115.557 22.243 115.902 21.5177 116.594 21.053C117.285 20.577 118.322 20.3163 119.705 20.271L121.32 20.22V19.812C121.32 19.3247 121.189 18.9677 120.929 18.741C120.679 18.5143 120.328 18.401 119.875 18.401C119.421 18.401 118.979 18.469 118.549 18.605C118.118 18.7297 117.687 18.8883 117.257 19.081L116.424 17.364C116.922 17.1033 117.472 16.8993 118.073 16.752C118.685 16.6047 119.319 16.531 119.977 16.531ZM120.334 21.733C119.518 21.7557 118.951 21.903 118.634 22.175C118.316 22.447 118.158 22.804 118.158 23.246C118.158 23.6313 118.271 23.909 118.498 24.079C118.724 24.2377 119.019 24.317 119.382 24.317C119.926 24.317 120.385 24.1583 120.759 23.841C121.133 23.5123 121.32 23.0533 121.32 22.464V21.699L120.334 21.733ZM131.699 16.548C132.696 16.548 133.495 16.82 134.096 17.364C134.696 17.8967 134.997 18.758 134.997 19.948V26H132.464V20.577C132.464 19.9083 132.345 19.4097 132.107 19.081C131.869 18.741 131.489 18.571 130.968 18.571C130.197 18.571 129.67 18.8373 129.387 19.37C129.103 19.8913 128.962 20.645 128.962 21.631V26H126.429V16.718H128.367L128.707 17.908H128.843C129.047 17.5907 129.296 17.3357 129.591 17.143C129.885 16.939 130.214 16.7917 130.577 16.701C130.939 16.599 131.313 16.548 131.699 16.548ZM141.375 26.17C140.457 26.17 139.675 26.0057 139.029 25.677C138.383 25.337 137.89 24.8157 137.55 24.113C137.21 23.4103 137.04 22.5093 137.04 21.41C137.04 20.2767 137.233 19.353 137.618 18.639C138.004 17.925 138.536 17.398 139.216 17.058C139.908 16.718 140.701 16.548 141.596 16.548C142.231 16.548 142.781 16.6103 143.245 16.735C143.721 16.8597 144.135 17.007 144.486 17.177L143.738 19.132C143.342 18.9733 142.968 18.843 142.616 18.741C142.276 18.639 141.936 18.588 141.596 18.588C141.154 18.588 140.786 18.6957 140.491 18.911C140.197 19.115 139.976 19.4267 139.828 19.846C139.692 20.254 139.624 20.7697 139.624 21.393C139.624 22.005 139.698 22.515 139.845 22.923C140.004 23.3197 140.231 23.62 140.525 23.824C140.82 24.0167 141.177 24.113 141.596 24.113C142.129 24.113 142.599 24.045 143.007 23.909C143.415 23.7617 143.812 23.5633 144.197 23.314V25.473C143.812 25.7223 143.404 25.898 142.973 26C142.554 26.1133 142.021 26.17 141.375 26.17ZM150.159 16.548C151.02 16.548 151.757 16.7123 152.369 17.041C152.992 17.3697 153.474 17.8457 153.814 18.469C154.154 19.0923 154.324 19.8573 154.324 20.764V21.988H148.34C148.362 22.702 148.572 23.263 148.969 23.671C149.377 24.079 149.938 24.283 150.652 24.283C151.252 24.283 151.796 24.2263 152.284 24.113C152.771 23.9883 153.275 23.8013 153.797 23.552V25.507C153.343 25.7337 152.862 25.898 152.352 26C151.853 26.1133 151.247 26.17 150.533 26.17C149.603 26.17 148.782 26 148.068 25.66C147.354 25.3087 146.793 24.7817 146.385 24.079C145.977 23.3763 145.773 22.4923 145.773 21.427C145.773 20.339 145.954 19.438 146.317 18.724C146.691 17.9987 147.206 17.4547 147.864 17.092C148.521 16.7293 149.286 16.548 150.159 16.548ZM150.176 18.35C149.688 18.35 149.28 18.5087 148.952 18.826C148.634 19.1433 148.447 19.6363 148.391 20.305H151.944C151.944 19.931 151.876 19.5967 151.74 19.302C151.615 19.0073 151.422 18.775 151.162 18.605C150.901 18.435 150.572 18.35 150.176 18.35Z" fill="#E5E5E5"/>
<g clip-path="url(#clip0_3518_1022)">
<mask id="mask0_3518_1022" style="mask-type:luminance" maskUnits="userSpaceOnUse" x="3" y="2" width="37" height="37">
<path d="M3 2H40V39H3V2Z" fill="white"/>
</mask>
<g mask="url(#mask0_3518_1022)">
<path d="M39.0263 29.2632C39.0263 30.2961 38.616 31.2867 37.8856 32.0172C37.1552 32.7476 36.1645 33.1579 35.1316 33.1579H27.3421V7.8421H35.1316C36.1645 7.8421 37.1552 8.25244 37.8856 8.98285C38.616 9.71325 39.0263 10.7039 39.0263 11.7368V29.2632Z" fill="#DD2E44"/>
<path d="M7.86842 7.8421C6.83547 7.8421 5.84483 8.25244 5.11443 8.98285C4.38402 9.71325 3.97369 10.7039 3.97369 11.7368V29.2632C3.97369 30.2961 4.38402 31.2867 5.11443 32.0172C5.84483 32.7476 6.83547 33.1579 7.86842 33.1579H15.6579V7.8421H7.86842Z" fill="#226699"/>
<path d="M27.3421 33.1579H15.6579V7.8421H27.3421V33.1579Z" fill="#EEEEEE"/>
</g>
</g>
<defs>
<clipPath id="clip0_3518_1022">
<rect width="37" height="37" fill="white" transform="translate(3 2)"/>
</clipPath>
</defs>
</svg>
