<svg width="44" height="39" viewBox="0 0 44 39" fill="none" xmlns="http://www.w3.org/2000/svg">
<g clip-path="url(#clip0_3554_1684)">
<mask id="mask0_3554_1684" style="mask-type:luminance" maskUnits="userSpaceOnUse" x="3" y="2" width="37" height="37">
<path d="M3 2H40V39H3V2Z" fill="white"/>
</mask>
<g mask="url(#mask0_3554_1684)">
<path d="M39.0263 29.2632C39.0263 30.2961 38.616 31.2868 37.8856 32.0172C37.1552 32.7476 36.1645 33.1579 35.1316 33.1579H27.3421V7.84211H35.1316C36.1645 7.84211 37.1552 8.25245 37.8856 8.98285C38.616 9.71326 39.0263 10.7039 39.0263 11.7368V29.2632Z" fill="#DD2E44"/>
<path d="M7.86842 7.84211C6.83547 7.84211 5.84483 8.25245 5.11443 8.98285C4.38402 9.71326 3.97369 10.7039 3.97369 11.7368V29.2632C3.97369 30.2961 4.38402 31.2868 5.11443 32.0172C5.84483 32.7476 6.83547 33.1579 7.86842 33.1579H15.6579V7.84211H7.86842Z" fill="#226699"/>
<path d="M27.3421 33.1579H15.6579V7.84211H27.3421V33.1579Z" fill="#EEEEEE"/>
</g>
</g>
<defs>
<clipPath id="clip0_3554_1684">
<rect width="37" height="37" fill="white" transform="translate(3 2)"/>
</clipPath>
</defs>
</svg>
